# xmcd
#
# Track frame offsets:
#	150
#	16877
#	32960
#	46982
#	63577
#	75975
#	93730
#	112022
#	125812
#	141157
#	159420
#	173952
#	189935
#	201207
#	215207
#
# Disc length: 2977 seconds
#
# Revision: 0
# Processed by: cddbd v1.5PL3 Copyright (c) Steve Scherf et al.
# Submitted via: dBpowerAMP V4.0
#
DISCID=da0b9f0f
DTITLE=The Singing Cookes - Greatest Hits Volume 2
DYEAR=1900
DGENRE=
TTITLE0=Land Of The Living
TTITLE1=One Way Flight
TTITLE2=One Way Flight
TTITLE3=Hill Lone And Gray
TTITLE4=He Must Have Walked Through The Lowest Valley
TTITLE5=Mail Order From Heaven
TTITLE6=City Limits Of Heaven
TTITLE7=I'll Have A Heart That Will Never Break Again
TTITLE8=Memories Of Mama
TTITLE9=He Sees Me With His Heart
TTITLE10=A Million Tears Or More
TTITLE11=Some Morning Yonder
TTITLE12=I Think I'll Read It Again
TTITLE13=I've Never Been This Homesick Before
TTITLE14=I May Be Leaving In The Morning
EXTD=Gospel
EXTT0=
EXTT1=
EXTT2=
EXTT3=
EXTT4=
EXTT5=
EXTT6=
EXTT7=
EXTT8=
EXTT9=
EXTT10=
EXTT11=
EXTT12=
EXTT13=
EXTT14=
PLAYORDER=
